ffmpeg version 6.1.1-3ubuntu5 Copyright (c) 2000-2023 the FFmpeg developers
  built with gcc 13 (Ubuntu 13.2.0-23ubuntu3)
  configuration: --prefix=/usr --extra-version=3ubuntu5 --toolchain=hardened --libdir=/usr/lib/x86_64-linux-gnu --incdir=/usr/include/x86_64-linux-gnu --arch=amd64 --enable-gpl --disable-stripping --disable-omx --enable-gnutls --enable-libaom --enable-libass --enable-libbs2b --enable-libcaca --enable-libcdio --enable-libcodec2 --enable-libdav1d --enable-libflite --enable-libfontconfig --enable-libfreetype --enable-libfribidi --enable-libglslang --enable-libgme --enable-libgsm --enable-libharfbuzz --enable-libmp3lame --enable-libmysofa --enable-libopenjpeg --enable-libopenmpt --enable-libopus --enable-librubberband --enable-libshine --enable-libsnappy --enable-libsoxr --enable-libspeex --enable-libtheora --enable-libtwolame --enable-libvidstab --enable-libvorbis --enable-libvpx --enable-libwebp --enable-libx265 --enable-libxml2 --enable-libxvid --enable-libzimg --enable-openal --enable-opencl --enable-opengl --disable-sndio --enable-libvpl --disable-libmfx --enable-libdc1394 --enable-libdrm --enable-libiec61883 --enable-chromaprint --enable-frei0r --enable-ladspa --enable-libbluray --enable-libjack --enable-libpulse --enable-librabbitmq --enable-librist --enable-libsrt --enable-libssh --enable-libsvtav1 --enable-libx264 --enable-libzmq --enable-libzvbi --enable-lv2 --enable-sdl2 --enable-libplacebo --enable-librav1e --enable-pocketsphinx --enable-librsvg --enable-libjxl --enable-shared
  libavutil      58. 29.100 / 58. 29.100
  libavcodec     60. 31.102 / 60. 31.102
  libavformat    60. 16.100 / 60. 16.100
  libavdevice    60.  3.100 / 60.  3.100
  libavfilter     9. 12.100 /  9. 12.100
  libswscale      7.  5.100 /  7.  5.100
  libswresample   4. 12.100 /  4. 12.100
  libpostproc    57.  3.100 / 57.  3.100
Input #0, concat, from '/home/sysadmin/SportsCuts/concat_list.txt':
  Duration: N/A, start: 0.000000, bitrate: 201 kb/s
  Stream #0:0(und): Video: hevc (Main) (hev1 / 0x31766568), yuvj420p(pc, bt470bg/bt470bg/smpte170m), 1280x960, 201 kb/s, 24.87 fps, 29.83 tbr, 12800 tbn
    Metadata:
      handler_name    : VideoHandler
      vendor_id       : [0][0][0][0]
Stream mapping:
  Stream #0:0 -> #0:0 (hevc (native) -> h264 (libx264))
Press [q] to stop, [?] for help
[swscaler @ 0x5a9a70bd0340] deprecated pixel format used, make sure you did set range correctly
    Last message repeated 3 times
[libx264 @ 0x5a9a70084f80] using cpu capabilities: MMX2 SSE2Fast LZCNT SSSE3 SSE4.2
[libx264 @ 0x5a9a70084f80] profile Constrained Baseline, level 3.2, 4:2:0, 8-bit
[libx264 @ 0x5a9a70084f80] 264 - core 164 r3108 31e19f9 - H.264/MPEG-4 AVC codec - Copyleft 2003-2023 - http://www.videolan.org/x264.html - options: cabac=0 ref=1 deblock=0:0:0 analyse=0:0 me=dia subme=0 psy=1 psy_rd=1.00:0.00 mixed_ref=0 me_range=16 chroma_me=1 trellis=0 8x8dct=0 cqm=0 deadzone=21,11 fast_pskip=1 chroma_qp_offset=0 threads=4 lookahead_threads=1 sliced_threads=0 nr=0 decimate=1 interlaced=0 bluray_compat=0 constrained_intra=0 bframes=0 weightp=0 keyint=250 keyint_min=25 scenecut=0 intra_refresh=0 rc=crf mbtree=0 crf=20.0 qcomp=0.60 qpmin=0 qpmax=69 qpstep=4 ip_ratio=1.40 aq=0
Output #0, mp4, to '/home/sysadmin/SportsCuts/pending/1_clip_20250906_120818.mp4':
  Metadata:
    encoder         : Lavf60.16.100
  Stream #0:0(und): Video: h264 (avc1 / 0x31637661), yuv420p(tv, bt470bg/bt470bg/smpte170m, progressive), 1280x960, q=2-31, 29.83 fps, 11456 tbn
    Metadata:
      handler_name    : VideoHandler
      vendor_id       : [0][0][0][0]
      encoder         : Lavc60.31.102 libx264
    Side data:
      cpb: bitrate max/min/avg: 0/0/0 buffer size: 0 vbv_delay: N/A
frame=    0 fps=0.0 q=0.0 size=       0kB time=N/A bitrate=N/A dup=1 drop=0 speed=N/A    frame=   63 fps=0.0 q=15.0 size=    1280kB time=00:00:02.11 bitrate=4965.7kbits/s dup=12 drop=0 speed=4.03x    frame=  138 fps=134 q=15.0 size=    2816kB time=00:00:04.59 bitrate=5023.6kbits/s dup=24 drop=0 speed=4.46x    frame=  210 fps=137 q=15.0 size=    4352kB time=00:00:07.03 bitrate=5064.8kbits/s dup=36 drop=0 speed=4.59x    frame=  281 fps=137 q=14.0 size=    6400kB time=00:00:09.38 bitrate=5586.2kbits/s dup=48 drop=0 speed=4.59x    frame=  359 fps=141 q=15.0 size=    7936kB time=00:00:12.03 bitrate=5402.6kbits/s dup=61 drop=0 speed=4.72x    frame=  387 fps=126 q=14.0 size=    8448kB time=00:00:12.97 bitrate=5335.0kbits/s dup=66 drop=0 speed=4.23x    frame=  447 fps=125 q=14.0 size=    9472kB time=00:00:14.94 bitrate=5190.4kbits/s dup=76 drop=0 speed=4.19x    frame=  518 fps=127 q=15.0 size=   11008kB time=00:00:17.36 bitrate=5193.6kbits/s dup=88 drop=0 speed=4.26x    frame=  584 fps=128 q=15.0 size=   12032kB time=00:00:19.57 bitrate=5035.2kbits/s dup=99 drop=0 speed=4.28x    frame=  646 fps=127 q=12.0 size=   13056kB time=00:00:21.65 bitrate=4939.4kbits/s dup=109 drop=0 speed=4.26x    frame=  707 fps=127 q=14.0 size=   14080kB time=00:00:23.69 bitrate=4867.2kbits/s dup=119 drop=0 speed=4.24x    frame=  780 fps=128 q=13.0 size=   15616kB time=00:00:26.14 bitrate=4892.9kbits/s dup=131 drop=0 speed= 4.3x    frame=  861 fps=130 q=13.0 size=   16384kB time=00:00:28.86 bitrate=4650.6kbits/s dup=145 drop=0 speed=4.37x    [mp4 @ 0x5a9a70074040] Starting second pass: moving the moov atom to the beginning of the file
[out#0/mp4 @ 0x5a9a70073480] video:17079kB audio:0kB subtitle:0kB other streams:0kB global headers:0kB muxing overhead: 0.026937%
frame=  895 fps=130 q=-1.0 Lsize=   17084kB time=00:00:29.96 bitrate=4670.2kbits/s dup=150 drop=0 speed=4.36x    
[libx264 @ 0x5a9a70084f80] frame I:4     Avg QP:13.00  size:249534
[libx264 @ 0x5a9a70084f80] frame P:891   Avg QP:14.42  size: 18508
[libx264 @ 0x5a9a70084f80] mb I  I16..4: 100.0%  0.0%  0.0%
[libx264 @ 0x5a9a70084f80] mb P  I16..4:  0.7%  0.0%  0.0%  P16..4: 19.4%  0.0%  0.0%  0.0%  0.0%    skip:79.9%
[libx264 @ 0x5a9a70084f80] coded y,uvDC,uvAC intra: 47.6% 32.1% 17.2% inter: 10.7% 2.2% 0.6%
[libx264 @ 0x5a9a70084f80] i16 v,h,dc,p: 58%  7% 11% 24%
[libx264 @ 0x5a9a70084f80] i8c dc,h,v,p: 54% 13% 27%  6%
[libx264 @ 0x5a9a70084f80] kb/s:4663.58
ffmpeg version 6.1.1-3ubuntu5 Copyright (c) 2000-2023 the FFmpeg developers
  built with gcc 13 (Ubuntu 13.2.0-23ubuntu3)
  configuration: --prefix=/usr --extra-version=3ubuntu5 --toolchain=hardened --libdir=/usr/lib/x86_64-linux-gnu --incdir=/usr/include/x86_64-linux-gnu --arch=amd64 --enable-gpl --disable-stripping --disable-omx --enable-gnutls --enable-libaom --enable-libass --enable-libbs2b --enable-libcaca --enable-libcdio --enable-libcodec2 --enable-libdav1d --enable-libflite --enable-libfontconfig --enable-libfreetype --enable-libfribidi --enable-libglslang --enable-libgme --enable-libgsm --enable-libharfbuzz --enable-libmp3lame --enable-libmysofa --enable-libopenjpeg --enable-libopenmpt --enable-libopus --enable-librubberband --enable-libshine --enable-libsnappy --enable-libsoxr --enable-libspeex --enable-libtheora --enable-libtwolame --enable-libvidstab --enable-libvorbis --enable-libvpx --enable-libwebp --enable-libx265 --enable-libxml2 --enable-libxvid --enable-libzimg --enable-openal --enable-opencl --enable-opengl --disable-sndio --enable-libvpl --disable-libmfx --enable-libdc1394 --enable-libdrm --enable-libiec61883 --enable-chromaprint --enable-frei0r --enable-ladspa --enable-libbluray --enable-libjack --enable-libpulse --enable-librabbitmq --enable-librist --enable-libsrt --enable-libssh --enable-libsvtav1 --enable-libx264 --enable-libzmq --enable-libzvbi --enable-lv2 --enable-sdl2 --enable-libplacebo --enable-librav1e --enable-pocketsphinx --enable-librsvg --enable-libjxl --enable-shared
  libavutil      58. 29.100 / 58. 29.100
  libavcodec     60. 31.102 / 60. 31.102
  libavformat    60. 16.100 / 60. 16.100
  libavdevice    60.  3.100 / 60.  3.100
  libavfilter     9. 12.100 /  9. 12.100
  libswscale      7.  5.100 /  7.  5.100
  libswresample   4. 12.100 /  4. 12.100
  libpostproc    57.  3.100 / 57.  3.100
Input #0, mov,mp4,m4a,3gp,3g2,mj2, from '/home/sysadmin/SportsCuts/pending/1_clip_20250906_120818.mp4':
  Metadata:
    major_brand     : isom
    minor_version   : 512
    compatible_brands: isomiso2avc1mp41
    encoder         : Lavf60.16.100
  Duration: 00:00:30.00, start: 0.000000, bitrate: 4664 kb/s
  Stream #0:0[0x1](und): Video: h264 (Constrained Baseline) (avc1 / 0x31637661), yuv420p(tv, bt470bg/bt470bg/smpte170m, progressive), 1280x960, 4663 kb/s, 29.83 fps, 29.83 tbr, 11456 tbn (default)
    Metadata:
      handler_name    : VideoHandler
      vendor_id       : [0][0][0][0]
      encoder         : Lavc60.31.102 libx264
Stream mapping:
  Stream #0:0 -> #0:0 (h264 (native) -> h264 (libx264))
Press [q] to stop, [?] for help
[libx264 @ 0x60040aa1ec40] using cpu capabilities: MMX2 SSE2Fast LZCNT SSSE3 SSE4.2
[libx264 @ 0x60040aa1ec40] profile Constrained Baseline, level 4.0, 4:2:0, 8-bit
[libx264 @ 0x60040aa1ec40] 264 - core 164 r3108 31e19f9 - H.264/MPEG-4 AVC codec - Copyleft 2003-2023 - http://www.videolan.org/x264.html - options: cabac=0 ref=1 deblock=0:0:0 analyse=0:0 me=dia subme=0 psy=1 psy_rd=1.00:0.00 mixed_ref=0 me_range=16 chroma_me=1 trellis=0 8x8dct=0 cqm=0 deadzone=21,11 fast_pskip=1 chroma_qp_offset=0 threads=4 lookahead_threads=1 sliced_threads=0 nr=0 decimate=1 interlaced=0 bluray_compat=0 constrained_intra=0 bframes=0 weightp=0 keyint=250 keyint_min=25 scenecut=0 intra_refresh=0 rc=crf mbtree=0 crf=20.0 qcomp=0.60 qpmin=0 qpmax=69 qpstep=4 ip_ratio=1.40 aq=0
Output #0, mp4, to '/home/sysadmin/SportsCuts/pending/vertical_1_clip_20250906_120818.mp4':
  Metadata:
    major_brand     : isom
    minor_version   : 512
    compatible_brands: isomiso2avc1mp41
    encoder         : Lavf60.16.100
  Stream #0:0(und): Video: h264 (avc1 / 0x31637661), yuv420p(tv, bt470bg/bt470bg/smpte170m, progressive), 1080x1920, q=2-31, 29.83 fps, 11456 tbn (default)
    Metadata:
      handler_name    : VideoHandler
      vendor_id       : [0][0][0][0]
      encoder         : Lavc60.31.102 libx264
    Side data:
      cpb: bitrate max/min/avg: 0/0/0 buffer size: 0 vbv_delay: N/A
frame=    0 fps=0.0 q=0.0 size=       0kB time=N/A bitrate=N/A speed=N/A    frame=   48 fps=0.0 q=15.0 size=    1536kB time=00:00:01.60 bitrate=7820.9kbits/s speed=3.13x    frame=  104 fps=102 q=16.0 size=    3072kB time=00:00:03.45 bitrate=7289.2kbits/s speed= 3.4x    frame=  157 fps=103 q=16.0 size=    4608kB time=00:00:05.26 bitrate=7173.1kbits/s speed=3.46x    frame=  210 fps=104 q=15.0 size=    6144kB time=00:00:07.00 bitrate=7184.6kbits/s speed=3.46x    frame=  264 fps=104 q=16.0 size=    8448kB time=00:00:08.81 bitrate=7850.4kbits/s speed=3.49x    frame=  318 fps=105 q=15.0 size=   10240kB time=00:00:10.65 bitrate=7869.9kbits/s speed=3.52x    frame=  367 fps=102 q=14.0 size=   11264kB time=00:00:12.33 bitrate=7480.6kbits/s speed=3.43x    frame=  418 fps=101 q=15.0 size=   12544kB time=00:00:14.04 bitrate=7316.7kbits/s speed= 3.4x    frame=  473 fps=102 q=15.0 size=   13824kB time=00:00:15.85 bitrate=7142.8kbits/s speed=3.42x    frame=  512 fps=100 q=15.0 size=   15360kB time=00:00:17.16 bitrate=7331.9kbits/s speed=3.34x    frame=  553 fps= 98 q=15.0 size=   16384kB time=00:00:18.53 bitrate=7240.8kbits/s speed=3.29x    frame=  602 fps= 98 q=14.0 size=   17408kB time=00:00:20.21 bitrate=7055.4kbits/s speed=3.28x    frame=  652 fps= 98 q=13.0 size=   18688kB time=00:00:21.85 bitrate=7005.0kbits/s speed=3.28x    frame=  666 fps= 93 q=14.0 size=   18944kB time=00:00:22.32 bitrate=6951.7kbits/s speed=3.11x    frame=  714 fps= 93 q=14.0 size=   19968kB time=00:00:23.93 bitrate=6834.9kbits/s speed=3.11x    frame=  781 fps= 95 q=13.0 size=   22016kB time=00:00:26.17 bitrate=6889.4kbits/s speed= 3.2x    frame=  843 fps= 97 q=13.0 size=   23040kB time=00:00:28.25 bitrate=6679.6kbits/s speed=3.25x    [mp4 @ 0x60040aacaa40] Starting second pass: moving the moov atom to the beginning of the file
[out#0/mp4 @ 0x60040aa19ec0] video:24306kB audio:0kB subtitle:0kB other streams:0kB global headers:0kB muxing overhead: 0.019334%
frame=  895 fps= 98 q=-1.0 Lsize=   24310kB time=00:00:29.96 bitrate=6645.7kbits/s speed=3.28x    
[libx264 @ 0x60040aa1ec40] frame I:4     Avg QP:13.25  size:359174
[libx264 @ 0x60040aa1ec40] frame P:891   Avg QP:14.49  size: 26320
[libx264 @ 0x60040aa1ec40] mb I  I16..4: 100.0%  0.0%  0.0%
[libx264 @ 0x60040aa1ec40] mb P  I16..4:  1.4%  0.0%  0.0%  P16..4: 21.4%  0.0%  0.0%  0.0%  0.0%    skip:77.2%
[libx264 @ 0x60040aa1ec40] coded y,uvDC,uvAC intra: 45.4% 28.0% 14.6% inter: 11.7% 2.6% 0.5%
[libx264 @ 0x60040aa1ec40] i16 v,h,dc,p: 73%  3%  5% 18%
[libx264 @ 0x60040aa1ec40] i8c dc,h,v,p: 51%  9% 34%  7%
[libx264 @ 0x60040aa1ec40] kb/s:6636.87
ffmpeg version 6.1.1-3ubuntu5 Copyright (c) 2000-2023 the FFmpeg developers
  built with gcc 13 (Ubuntu 13.2.0-23ubuntu3)
  configuration: --prefix=/usr --extra-version=3ubuntu5 --toolchain=hardened --libdir=/usr/lib/x86_64-linux-gnu --incdir=/usr/include/x86_64-linux-gnu --arch=amd64 --enable-gpl --disable-stripping --disable-omx --enable-gnutls --enable-libaom --enable-libass --enable-libbs2b --enable-libcaca --enable-libcdio --enable-libcodec2 --enable-libdav1d --enable-libflite --enable-libfontconfig --enable-libfreetype --enable-libfribidi --enable-libglslang --enable-libgme --enable-libgsm --enable-libharfbuzz --enable-libmp3lame --enable-libmysofa --enable-libopenjpeg --enable-libopenmpt --enable-libopus --enable-librubberband --enable-libshine --enable-libsnappy --enable-libsoxr --enable-libspeex --enable-libtheora --enable-libtwolame --enable-libvidstab --enable-libvorbis --enable-libvpx --enable-libwebp --enable-libx265 --enable-libxml2 --enable-libxvid --enable-libzimg --enable-openal --enable-opencl --enable-opengl --disable-sndio --enable-libvpl --disable-libmfx --enable-libdc1394 --enable-libdrm --enable-libiec61883 --enable-chromaprint --enable-frei0r --enable-ladspa --enable-libbluray --enable-libjack --enable-libpulse --enable-librabbitmq --enable-librist --enable-libsrt --enable-libssh --enable-libsvtav1 --enable-libx264 --enable-libzmq --enable-libzvbi --enable-lv2 --enable-sdl2 --enable-libplacebo --enable-librav1e --enable-pocketsphinx --enable-librsvg --enable-libjxl --enable-shared
  libavutil      58. 29.100 / 58. 29.100
  libavcodec     60. 31.102 / 60. 31.102
  libavformat    60. 16.100 / 60. 16.100
  libavdevice    60.  3.100 / 60.  3.100
  libavfilter     9. 12.100 /  9. 12.100
  libswscale      7.  5.100 /  7.  5.100
  libswresample   4. 12.100 /  4. 12.100
  libpostproc    57.  3.100 / 57.  3.100
Input #0, mov,mp4,m4a,3gp,3g2,mj2, from '/home/sysadmin/SportsCuts/pending/1_clip_20250906_120818.mp4':
  Metadata:
    major_brand     : isom
    minor_version   : 512
    compatible_brands: isomiso2avc1mp41
    encoder         : Lavf60.16.100
  Duration: 00:00:30.00, start: 0.000000, bitrate: 6638 kb/s
  Stream #0:0[0x1](und): Video: h264 (Constrained Baseline) (avc1 / 0x31637661), yuv420p(tv, bt470bg/bt470bg/smpte170m, progressive), 1080x1920, 6637 kb/s, 29.83 fps, 29.83 tbr, 11456 tbn (default)
    Metadata:
      handler_name    : VideoHandler
      vendor_id       : [0][0][0][0]
      encoder         : Lavc60.31.102 libx264
Input #1, ico, from '/home/sysadmin/SportsCuts/favicon.ico':
  Duration: N/A, bitrate: N/A
  Stream #1:0: Video: bmp, bgra, 16x16, 90k tbr, 90k tbn
  Stream #1:1: Video: bmp, bgra, 24x24, 90k tbr, 90k tbn
  Stream #1:2: Video: bmp, bgra, 32x32, 90k tbr, 90k tbn
  Stream #1:3: Video: bmp, bgra, 48x48, 90k tbr, 90k tbn
  Stream #1:4: Video: bmp, bgra, 64x64, 90k tbr, 90k tbn
  Stream #1:5: Video: bmp, bgra, 72x72, 90k tbr, 90k tbn
  Stream #1:6: Video: bmp, bgra, 96x96, 90k tbr, 90k tbn
  Stream #1:7: Video: bmp, bgra, 128x128, 90k tbr, 90k tbn
  Stream #1:8: Video: png, rgba(pc, gbr/unknown/unknown), 256x256, 90k tbr, 90k tbn
Stream mapping:
  Stream #0:0 (h264) -> overlay
  Stream #1:0 (bmp) -> overlay
  overlay:default -> Stream #0:0 (libx264)
Press [q] to stop, [?] for help
[libx264 @ 0x5c9f54a7f640] using cpu capabilities: MMX2 SSE2Fast LZCNT SSSE3 SSE4.2
[libx264 @ 0x5c9f54a7f640] profile High, level 4.0, 4:2:0, 8-bit
[libx264 @ 0x5c9f54a7f640] 264 - core 164 r3108 31e19f9 - H.264/MPEG-4 AVC codec - Copyleft 2003-2023 - http://www.videolan.org/x264.html - options: cabac=1 ref=3 deblock=1:0:0 analyse=0x3:0x113 me=hex subme=7 psy=1 psy_rd=1.00:0.00 mixed_ref=1 me_range=16 chroma_me=1 trellis=1 8x8dct=1 cqm=0 deadzone=21,11 fast_pskip=1 chroma_qp_offset=-2 threads=4 lookahead_threads=1 sliced_threads=0 nr=0 decimate=1 interlaced=0 bluray_compat=0 constrained_intra=0 bframes=3 b_pyramid=2 b_adapt=1 b_bias=0 direct=1 weightb=1 open_gop=0 weightp=2 keyint=250 keyint_min=25 scenecut=40 intra_refresh=0 rc_lookahead=40 rc=crf mbtree=1 crf=23.0 qcomp=0.60 qpmin=0 qpmax=69 qpstep=4 ip_ratio=1.40 aq=1:1.00
Output #0, mp4, to '/home/sysadmin/SportsCuts/pending/overlay_1_clip_20250906_120818.mp4':
  Metadata:
    major_brand     : isom
    minor_version   : 512
    compatible_brands: isomiso2avc1mp41
    encoder         : Lavf60.16.100
  Stream #0:0: Video: h264 (avc1 / 0x31637661), yuv420p(tv, bt470bg/bt470bg/smpte170m, progressive), 1080x1920, q=2-31, 29.83 fps, 11456 tbn
    Metadata:
      encoder         : Lavc60.31.102 libx264
    Side data:
      cpb: bitrate max/min/avg: 0/0/0 buffer size: 0 vbv_delay: N/A
frame=    0 fps=0.0 q=0.0 size=       0kB time=N/A bitrate=N/A speed=N/A    frame=    0 fps=0.0 q=29.0 size=       0kB time=-00:00:00.03 bitrate=  -0.0kbits/s speed=N/A    frame=   18 fps= 16 q=29.0 size=       0kB time=00:00:00.50 bitrate=   0.8kbits/s speed=0.445x    frame=   32 fps= 20 q=29.0 size=     256kB time=00:00:01.00 bitrate=2085.9kbits/s speed=0.616x    frame=   48 fps= 22 q=29.0 size=     256kB time=00:00:01.54 bitrate=1360.4kbits/s speed=0.714x    frame=   61 fps= 23 q=29.0 size=     256kB time=00:00:01.97 bitrate=1060.6kbits/s speed=0.742x    frame=   76 fps= 24 q=29.0 size=     512kB time=00:00:02.48 bitrate=1691.1kbits/s speed=0.771x    frame=   90 fps= 24 q=29.0 size=     512kB time=00:00:02.91 bitrate=1438.4kbits/s speed=0.774x    frame=  106 fps= 25 q=29.0 size=     512kB time=00:00:03.48 bitrate=1203.3kbits/s speed=0.814x    frame=  119 fps= 25 q=29.0 size=     768kB time=00:00:03.92 bitrate=1604.3kbits/s speed=0.817x    frame=  135 fps= 25 q=29.0 size=     768kB time=00:00:04.42 bitrate=1422.0kbits/s speed=0.83x    frame=  148 fps= 25 q=29.0 size=     768kB time=00:00:04.89 bitrate=1285.7kbits/s speed=0.838x    frame=  160 fps= 25 q=29.0 size=     768kB time=00:00:05.29 bitrate=1188.0kbits/s speed=0.833x    frame=  174 fps= 25 q=29.0 size=    1024kB time=00:00:05.76 bitrate=1455.1kbits/s speed=0.83x    frame=  182 fps= 24 q=29.0 size=    1024kB time=00:00:06.03 bitrate=1390.4kbits/s speed=0.806x    frame=  192 fps= 24 q=29.0 size=    1024kB time=00:00:06.36 bitrate=1317.2kbits/s speed=0.789x    frame=  201 fps= 23 q=29.0 size=    1024kB time=00:00:06.67 bitrate=1257.6kbits/s speed=0.778x    frame=  215 fps= 24 q=29.0 size=    1280kB time=00:00:07.13 bitrate=1468.7kbits/s speed=0.786x    frame=  230 fps= 24 q=29.0 size=    1280kB time=00:00:07.64 bitrate=1372.1kbits/s speed=0.797x    frame=  243 fps= 24 q=29.0 size=    1536kB time=00:00:08.07 bitrate=1557.7kbits/s speed= 0.8x    frame=  256 fps= 24 q=29.0 size=    1792kB time=00:00:08.51 bitrate=1724.3kbits/s speed=0.802x    frame=  275 fps= 25 q=29.0 size=    1792kB time=00:00:09.15 bitrate=1604.3kbits/s speed=0.821x    frame=  287 fps= 25 q=29.0 size=    1792kB time=00:00:09.55 bitrate=1536.7kbits/s speed=0.819x    frame=  298 fps= 24 q=29.0 size=    2048kB time=00:00:09.92 bitrate=1691.0kbits/s speed=0.809x    frame=  311 fps= 24 q=29.0 size=    2048kB time=00:00:10.35 bitrate=1619.8kbits/s speed=0.812x    frame=  322 fps= 24 q=29.0 size=    2048kB time=00:00:10.72 bitrate=1564.2kbits/s speed=0.807x    frame=  341 fps= 25 q=29.0 size=    2048kB time=00:00:11.32 bitrate=1480.9kbits/s speed=0.82x    frame=  356 fps= 25 q=29.0 size=    2304kB time=00:00:11.86 bitrate=1590.7kbits/s speed=0.827x    frame=  371 fps= 25 q=29.0 size=    2304kB time=00:00:12.36 bitrate=1526.0kbits/s speed=0.833x    frame=  387 fps= 25 q=29.0 size=    2304kB time=00:00:12.90 bitrate=1462.6kbits/s speed=0.839x    frame=  400 fps= 25 q=29.0 size=    2304kB time=00:00:13.37 bitrate=1411.3kbits/s speed=0.842x    frame=  419 fps= 26 q=29.0 size=    2560kB time=00:00:13.97 bitrate=1500.4kbits/s speed=0.853x    frame=  437 fps= 26 q=29.0 size=    2560kB time=00:00:14.54 bitrate=1441.6kbits/s speed=0.86x    frame=  455 fps= 26 q=29.0 size=    2560kB time=00:00:15.15 bitrate=1384.2kbits/s speed=0.868x    frame=  469 fps= 26 q=29.0 size=    2560kB time=00:00:15.62 bitrate=1342.6kbits/s speed=0.87x    frame=  483 fps= 26 q=29.0 size=    2816kB time=00:00:16.12 bitrate=1430.8kbits/s speed=0.872x    frame=  495 fps= 26 q=29.0 size=    2816kB time=00:00:16.52 bitrate=1396.0kbits/s speed=0.867x    frame=  506 fps= 26 q=29.0 size=    3072kB time=00:00:16.89 bitrate=1489.7kbits/s speed=0.862x    frame=  525 fps= 26 q=29.0 size=    3072kB time=00:00:17.53 bitrate=1435.5kbits/s speed=0.872x    frame=  541 fps= 26 q=29.0 size=    3328kB time=00:00:18.06 bitrate=1509.0kbits/s speed=0.876x    frame=  558 fps= 26 q=29.0 size=    3328kB time=00:00:18.63 bitrate=1462.9kbits/s speed=0.882x    frame=  572 fps= 26 q=29.0 size=    3328kB time=00:00:19.07 bitrate=1429.4kbits/s speed=0.882x    frame=  584 fps= 26 q=29.0 size=    3328kB time=00:00:19.50 bitrate=1397.5kbits/s speed=0.88x    frame=  596 fps= 26 q=29.0 size=    3328kB time=00:00:19.87 bitrate=1371.6kbits/s speed=0.877x    frame=  610 fps= 26 q=29.0 size=    3584kB time=00:00:20.34 bitrate=1443.0kbits/s speed=0.877x    frame=  626 fps= 26 q=29.0 size=    3584kB time=00:00:20.91 bitrate=1403.7kbits/s speed=0.883x    frame=  642 fps= 27 q=29.0 size=    3584kB time=00:00:21.41 bitrate=1370.8kbits/s speed=0.885x    frame=  660 fps= 27 q=29.0 size=    3584kB time=00:00:22.05 bitrate=1331.2kbits/s speed=0.891x    frame=  675 fps= 27 q=29.0 size=    3584kB time=00:00:22.55 bitrate=1301.5kbits/s speed=0.893x    frame=  689 fps= 27 q=29.0 size=    3840kB time=00:00:23.02 bitrate=1366.1kbits/s speed=0.892x    frame=  706 fps= 27 q=29.0 size=    3840kB time=00:00:23.59 bitrate=1333.1kbits/s speed=0.896x    frame=  720 fps= 27 q=29.0 size=    3840kB time=00:00:24.06 bitrate=1307.1kbits/s speed=0.896x    frame=  735 fps= 27 q=29.0 size=    4096kB time=00:00:24.56 bitrate=1365.7kbits/s speed=0.897x    frame=  751 fps= 27 q=29.0 size=    4096kB time=00:00:25.10 bitrate=1336.5kbits/s speed= 0.9x    frame=  770 fps= 27 q=29.0 size=    4352kB time=00:00:25.74 bitrate=1384.9kbits/s speed=0.906x    frame=  788 fps= 27 q=29.0 size=    4352kB time=00:00:26.34 bitrate=1353.2kbits/s speed=0.91x    frame=  805 fps= 27 q=29.0 size=    4352kB time=00:00:26.91 bitrate=1324.6kbits/s speed=0.913x    frame=  819 fps= 27 q=29.0 size=    4352kB time=00:00:27.38 bitrate=1301.9kbits/s speed=0.914x    frame=  826 fps= 27 q=29.0 size=    4608kB time=00:00:27.62 bitrate=1366.7kbits/s speed=0.906x    frame=  834 fps= 27 q=29.0 size=    4608kB time=00:00:27.88 bitrate=1353.6kbits/s speed=0.899x    frame=  846 fps= 27 q=29.0 size=    4608kB time=00:00:28.29 bitrate=1334.3kbits/s speed=0.898x    [out#0/mp4 @ 0x5c9f54a7e3c0] video:4800kB audio:0kB subtitle:0kB other streams:0kB global headers:0kB muxing overhead: 0.206765%
frame=  895 fps= 27 q=-1.0 Lsize=    4810kB time=00:00:29.89 bitrate=1317.9kbits/s speed=0.908x    
[libx264 @ 0x5c9f54a7f640] frame I:4     Avg QP:16.73  size:158691
[libx264 @ 0x5c9f54a7f640] frame P:440   Avg QP:20.71  size:  8589
[libx264 @ 0x5c9f54a7f640] frame B:451   Avg QP:26.42  size:  1110
[libx264 @ 0x5c9f54a7f640] consecutive B-frames: 26.0% 14.3% 18.1% 41.6%
[libx264 @ 0x5c9f54a7f640] mb I  I16..4: 37.4% 38.7% 23.9%
[libx264 @ 0x5c9f54a7f640] mb P  I16..4:  1.1%  0.8%  0.0%  P16..4: 14.2%  4.1%  2.6%  0.0%  0.0%    skip:77.1%
[libx264 @ 0x5c9f54a7f640] mb B  I16..4:  0.1%  0.0%  0.0%  B16..8: 15.1%  0.1%  0.0%  direct: 0.0%  skip:84.6%  L0:44.4% L1:55.1% BI: 0.5%
[libx264 @ 0x5c9f54a7f640] 8x8 transform intra:40.9% inter:68.1%
[libx264 @ 0x5c9f54a7f640] coded y,uvDC,uvAC intra: 36.1% 28.0% 9.9% inter: 3.2% 1.8% 0.0%
[libx264 @ 0x5c9f54a7f640] i16 v,h,dc,p: 65%  4%  8% 24%
[libx264 @ 0x5c9f54a7f640] i8 v,h,dc,ddl,ddr,vr,hd,vl,hu: 70%  4% 22%  0%  0%  1%  0%  2%  1%
[libx264 @ 0x5c9f54a7f640] i4 v,h,dc,ddl,ddr,vr,hd,vl,hu: 66%  8% 13%  2%  1%  5%  0%  4%  1%
[libx264 @ 0x5c9f54a7f640] i8c dc,h,v,p: 58%  9% 29%  4%
[libx264 @ 0x5c9f54a7f640] Weighted P-Frames: Y:0.0% UV:0.0%
[libx264 @ 0x5c9f54a7f640] ref P L0: 77.7%  9.6%  9.3%  3.4%
[libx264 @ 0x5c9f54a7f640] ref B L0: 87.4% 10.3%  2.2%
[libx264 @ 0x5c9f54a7f640] ref B L1: 97.0%  3.0%
[libx264 @ 0x5c9f54a7f640] kb/s:1310.54
 Clip criado: /home/sysadmin/SportsCuts/pending/1_clip_20250906_120818.mp4
Sinalizador criado: 1_clip_20250906_120818.done
 Metadata criada: 1_clip_20250906_120818.json
